<svg width="48" height="40" viewBox="0 0 48 40" fill="none" xmlns="http://www.w3.org/2000/svg">
<path d="M13.6094 7.07812H21.9375V31H13.6094V7.07812ZM2.03125 23.2188C2.03125 22.0729 2.18229 21.0104 2.48438 20.0312C2.78646 19.0417 3.25521 18.1771 3.89062 17.4375C5.26562 15.8542 7.23438 15.0625 9.79688 15.0625H11V31H10.1875C7.5625 31 5.53125 30.2812 4.09375 28.8438C2.71875 27.4688 2.03125 25.5938 2.03125 23.2188ZM45.7344 16.3438C45.7344 19.4896 44.3594 21.5573 41.6094 22.5469C43.151 23.1198 44.3125 24.0521 45.0938 25.3438C45.7708 26.4896 46.1094 27.8229 46.1094 29.3438V31H36.7969V9.70312H37.6094C40.3594 9.70312 42.3854 10.224 43.6875 11.2656C45.0521 12.3594 45.7344 14.0521 45.7344 16.3438ZM25.7969 9.73438H34.2031V31H25.7969V9.73438Z" fill="#303030"/>
</svg>
