<?xml version="1.0" encoding="UTF-8" standalone="no"?> <svg width="24" height="24" viewBox="0 0 24 24" fill="none" xmlns="http://www.w3.org/2000/svg">
<path fill-rule="evenodd" clip-rule="evenodd" d="M1.29289 1.29289C1.68342 0.902369 2.31658 0.902369 2.70711 1.29289L3.70711 2.29289C4.09763 2.68342 4.09763 3.31658 3.70711 3.70711C3.31658 4.09763 2.68342 4.09763 2.29289 3.70711L1.29289 2.70711C0.902369 2.31658 0.902369 1.68342 1.29289 1.29289ZM12 3C8.68629 3 6 5.68629 6 9C6 10.489 6.54108 11.849 7.4386 12.8981C8.18178 13.7668 9.00615 14.8069 9.5129 16H14.4871C14.9939 14.8069 15.8182 13.7668 16.5614 12.8981C17.4589 11.849 18 10.489 18 9C18 5.68629 15.3137 3 12 3ZM14.0071 18H9.99293C9.9976 18.0899 10 18.1805 10 18.2719V19C10 20.1046 10.8954 21 12 21C13.1046 21 14 20.1046 14 19V18.2719C14 18.1805 14.0024 18.0899 14.0071 18ZM4 9C4 4.58172 7.58172 1 12 1C16.4183 1 20 4.58172 20 9C20 10.9835 19.2769 12.8006 18.0811 14.1983C17.2004 15.2277 16.4561 16.2302 16.1481 17.2812C16.0517 17.6103 16 17.9392 16 18.2719V19C16 21.2091 14.2091 23 12 23C9.79086 23 8 21.2091 8 19V18.2719C8 17.9392 7.94833 17.6103 7.8519 17.2812C7.5439 16.2302 6.79962 15.2277 5.91887 14.1983C4.72312 12.8006 4 10.9835 4 9ZM22.7071 1.29289C23.0976 1.68342 23.0976 2.31658 22.7071 2.70711L21.7071 3.70711C21.3166 4.09763 20.6834 4.09763 20.2929 3.70711C19.9024 3.31658 19.9024 2.68342 20.2929 2.29289L21.2929 1.29289C21.6834 0.902369 22.3166 0.902369 22.7071 1.29289ZM3.70711 14.2929C4.09763 14.6834 4.09763 15.3166 3.70711 15.7071L2.70711 16.7071C2.31658 17.0976 1.68342 17.0976 1.29289 16.7071C0.902369 16.3166 0.902369 15.6834 1.29289 15.2929L2.29289 14.2929C2.68342 13.9024 3.31658 13.9024 3.70711 14.2929ZM20.2929 14.2929C20.6834 13.9024 21.3166 13.9024 21.7071 14.2929L22.7071 15.2929C23.0976 15.6834 23.0976 16.3166 22.7071 16.7071C22.3166 17.0976 21.6834 17.0976 21.2929 16.7071L20.2929 15.7071C19.9024 15.3166 19.9024 14.6834 20.2929 14.2929Z" fill="#293644"/>
</svg>
