<svg width="28" height="31" viewBox="0 0 28 31" fill="none" xmlns="http://www.w3.org/2000/svg">
<path d="M0.266 27.599H0.7105V30H0.266V27.599ZM1.88762 27.599H2.84662C3.21762 27.599 3.50462 27.6993 3.70762 27.9C3.91062 28.0983 4.01212 28.3982 4.01212 28.7995C4.01212 29.2008 3.91062 29.5018 3.70762 29.7025C3.50462 29.9008 3.21762 30 2.84662 30H1.88762V27.599ZM2.84662 29.6185C3.07529 29.6185 3.24912 29.5532 3.36812 29.4225C3.48945 29.2918 3.55129 29.0958 3.55362 28.8345V28.7645C3.55362 28.5055 3.49295 28.3107 3.37162 28.18C3.25029 28.047 3.07529 27.9805 2.84662 27.9805H2.33562V29.6185H2.84662ZM5.0785 27.599H6.0375C6.4085 27.599 6.6955 27.6993 6.8985 27.9C7.1015 28.0983 7.203 28.3982 7.203 28.7995C7.203 29.2008 7.1015 29.5018 6.8985 29.7025C6.6955 29.9008 6.4085 30 6.0375 30H5.0785V27.599ZM6.0375 29.6185C6.26617 29.6185 6.44 29.5532 6.559 29.4225C6.68033 29.2918 6.74217 29.0958 6.7445 28.8345V28.7645C6.7445 28.5055 6.68383 28.3107 6.5625 28.18C6.44117 28.047 6.26617 27.9805 6.0375 27.9805H5.5265V29.6185H6.0375ZM8.07688 27.599H8.43738L9.07088 29.3455L9.18988 29.6675H9.20738L9.31938 29.3595L9.95638 27.599H10.2994L9.40688 30H8.96938L8.07688 27.599ZM11.3424 27.599H11.6749V30H11.3424V27.599ZM12.936 27.599H14.784V27.8895H13.2685V28.628H14.63V28.9185H13.2685V29.7095H14.805V30H12.936V27.599ZM16.5619 27.8895H15.7359V27.599H17.7204V27.8895H16.8944V30H16.5619V27.8895ZM18.7401 27.599H19.0376L20.3046 29.272L20.3886 29.384L20.4026 29.3805V29.2195V27.599H20.7141V30H20.4306L19.1566 28.306L19.0656 28.1835L19.0516 28.187V28.3305V30H18.7401V27.599ZM22.61 27.599H23.0335L23.9645 30H23.611L23.3695 29.3595H22.2565L22.022 30H21.679L22.61 27.599ZM23.261 29.069L22.981 28.32L22.82 27.886H22.8025L22.645 28.313L22.365 29.069H23.261ZM24.9304 27.599H25.4239L25.9979 29.237C26.0306 29.3303 26.0668 29.4505 26.1064 29.5975H26.1204C26.1624 29.4342 26.1974 29.314 26.2254 29.237L26.8029 27.599H27.2929V30H26.9604V28.4145L26.9674 27.9665H26.9429C26.9243 28.0622 26.9044 28.1392 26.8834 28.1975L26.2324 30H25.9559L25.3154 28.1975C25.2968 28.1485 25.2769 28.0715 25.2559 27.9665H25.2349L25.2419 28.4145V30H24.9304V27.599Z" fill="#22408E"/>
<path fill-rule="evenodd" clip-rule="evenodd" d="M13.656 0H5.52802V3.952H8.56802V2.656H13.656C16.216 2.656 18.1573 3.30667 19.48 4.608C20.824 5.888 21.496 8.01067 21.496 10.976V11.04C21.4747 13.984 20.792 16.096 19.448 17.376C18.1253 18.656 16.1947 19.296 13.656 19.296H8.56802V7.952H5.52802V21.952H13.656C17.176 21.952 19.8853 21.056 21.784 19.264C23.6827 17.4507 24.632 14.688 24.632 10.976C24.632 7.264 23.6827 4.512 21.784 2.72C19.8853 0.906667 17.176 0 13.656 0Z" fill="#22408E"/>
<path fill-rule="evenodd" clip-rule="evenodd" d="M8.65602 4.5H0.528015V26.452H8.65602C12.176 26.452 14.8853 25.556 16.784 23.764C17.3652 23.2089 17.8574 22.5649 18.2607 21.832C17.8038 21.9793 17.3466 22.1047 16.8976 22.2109C15.7173 22.4899 14.4832 22.6677 13.2605 22.7633C12.0527 23.4518 10.5179 23.796 8.65602 23.796H3.56802V7.156H8.65602C11.216 7.156 13.1573 7.80667 14.48 9.108C15.824 10.388 16.496 12.5107 16.496 15.476V15.54C16.4888 16.5402 16.4052 17.4444 16.2453 18.2525C17.6996 17.883 18.8095 17.3828 19.5911 16.7694C19.6184 16.3519 19.632 15.9208 19.632 15.476C19.632 11.764 18.6827 9.012 16.784 7.22C14.8853 5.40667 12.176 4.5 8.65602 4.5Z" fill="#22408E"/>
<rect x="0.5" y="0.052002" width="3" height="3" fill="#EF4C35"/>
</svg>
