<svg width="93" height="93" viewBox="0 0 93 93" fill="none" xmlns="http://www.w3.org/2000/svg">
<circle cx="46.39" cy="46.39" r="46.39" fill="#FFC800"/>
<path d="M19.7812 50.9375C19.4948 50.651 19.2865 50.3776 19.1562 50.1172C19.0521 49.8307 18.974 49.5573 18.9219 49.2969C18.8698 49.0104 18.8698 48.724 18.9219 48.4375C19.026 48.0729 19.1823 47.7344 19.3906 47.4219C19.5729 47.1354 19.8203 46.849 20.1328 46.5625C20.4453 46.25 20.862 45.9635 21.3828 45.7031C21.7214 44.8698 22.0208 43.9974 22.2812 43.0859C22.5677 42.1484 22.8151 41.3021 23.0234 40.5469C23.2578 39.6615 23.4661 38.776 23.6484 37.8906C24.2995 35.6771 24.638 33.8802 24.6641 32.5C24.6901 31.0938 24.6641 30.1693 24.5859 29.7266C24.5599 29.5443 24.5339 29.362 24.5078 29.1797C24.4557 29.0234 24.4036 28.8542 24.3516 28.6719C24.3255 28.4635 24.2865 28.2682 24.2344 28.0859C24.5208 27.9297 24.7682 27.7995 24.9766 27.6953C25.2109 27.5911 25.4062 27.513 25.5625 27.4609C25.7448 27.3828 25.9141 27.3307 26.0703 27.3047C26.6693 27.1745 27.2292 27.1094 27.75 27.1094C28.2969 27.0833 28.5964 27.1745 28.6484 27.3828C28.6745 27.513 28.7005 27.7474 28.7266 28.0859C28.7786 28.4245 28.8047 28.8411 28.8047 29.3359C28.8047 29.8307 28.7656 30.3906 28.6875 31.0156C28.6094 31.6146 28.4661 32.2526 28.2578 32.9297C28.0755 33.5286 27.8281 34.362 27.5156 35.4297C27.2292 36.3411 26.8516 37.5651 26.3828 39.1016C25.9141 40.612 25.3021 42.5521 24.5469 44.9219C25.3281 44.6615 26.1875 44.4141 27.125 44.1797C28.0625 43.9453 29.013 43.75 29.9766 43.5938C30.9661 43.4375 31.9427 43.3203 32.9062 43.2422C33.8958 43.1641 34.8073 43.151 35.6406 43.2031C35.7969 43.2031 35.901 43.2812 35.9531 43.4375C36.0312 43.5677 36.0312 43.7109 35.9531 43.8672C35.901 44.0234 35.7578 44.1797 35.5234 44.3359C35.3151 44.4661 35.0026 44.5443 34.5859 44.5703C34.0651 44.6224 33.4922 44.6875 32.8672 44.7656C32.2422 44.8177 31.5911 44.9089 30.9141 45.0391C30.263 45.1432 29.612 45.2865 28.9609 45.4688C28.3099 45.625 27.6979 45.8203 27.125 46.0547C26.6823 46.2109 26.2396 46.3672 25.7969 46.5234C25.4323 46.6536 25.0417 46.8099 24.625 46.9922C24.2344 47.1484 23.9089 47.2917 23.6484 47.4219L22.75 50.2734C24.2604 51.3411 25.4193 52.4349 26.2266 53.5547C27.0599 54.6745 27.6589 55.7031 28.0234 56.6406C28.4661 57.7344 28.7135 58.8021 28.7656 59.8438C28.7656 60.9896 28.5964 62.1354 28.2578 63.2812C27.9193 64.4531 27.4635 65.5599 26.8906 66.6016C26.3438 67.6693 25.6927 68.6589 24.9375 69.5703C24.2083 70.4818 23.4271 71.263 22.5938 71.9141C21.7865 72.5651 20.9531 73.0599 20.0938 73.3984C19.2604 73.737 18.4661 73.8672 17.7109 73.7891C17.1641 73.737 16.7083 73.5547 16.3438 73.2422C15.9792 72.9557 15.7057 72.5781 15.5234 72.1094C15.3411 71.6667 15.237 71.1589 15.2109 70.5859C15.1849 70.0391 15.237 69.4922 15.3672 68.9453C15.4714 68.3984 15.6927 67.3828 16.0312 65.8984C16.3177 64.6484 16.7604 62.8255 17.3594 60.4297C17.9583 58.0599 18.7656 54.8958 19.7812 50.9375ZM22.0859 52.7734C21.7214 54.0755 21.3958 55.2734 21.1094 56.3672C20.849 57.4609 20.6276 58.4245 20.4453 59.2578C20.2109 60.2214 20.0286 61.0938 19.8984 61.875C19.6641 62.8646 19.4167 63.8411 19.1562 64.8047C18.9219 65.7682 18.7396 66.6276 18.6094 67.3828C18.4531 68.1641 18.388 68.7891 18.4141 69.2578C18.4401 69.7266 18.6094 69.9609 18.9219 69.9609C19.6771 70.013 20.4583 69.7135 21.2656 69.0625C22.099 68.4375 22.8542 67.6302 23.5312 66.6406C24.2083 65.6771 24.7682 64.6224 25.2109 63.4766C25.6536 62.3568 25.875 61.3151 25.875 60.3516C25.875 59.2839 25.7057 58.2292 25.3672 57.1875C25.1328 56.6406 24.8594 56.1068 24.5469 55.5859C24.2604 55.1432 23.9089 54.6745 23.4922 54.1797C23.1016 53.6589 22.6328 53.1901 22.0859 52.7734ZM40.6016 31.9922C40.5234 32.2786 40.3672 32.5651 40.1328 32.8516C39.9245 33.112 39.6771 33.3333 39.3906 33.5156C39.1302 33.6719 38.8568 33.776 38.5703 33.8281C38.2839 33.8802 38.0495 33.8281 37.8672 33.6719C37.3203 33.2552 37.0339 32.8125 37.0078 32.3438C36.9818 31.849 37.099 31.3932 37.3594 30.9766C37.6198 30.5339 37.9453 30.1693 38.3359 29.8828C38.7266 29.5703 39.0651 29.388 39.3516 29.3359C39.638 29.2839 39.8724 29.349 40.0547 29.5312C40.263 29.6875 40.4193 29.9089 40.5234 30.1953C40.6276 30.4557 40.6797 30.7552 40.6797 31.0938C40.7057 31.4323 40.6797 31.7318 40.6016 31.9922ZM35.2109 40.3125C35.3411 40.1562 35.5885 40.026 35.9531 39.9219C36.3177 39.8177 36.6953 39.7396 37.0859 39.6875C37.4766 39.6094 37.8281 39.5703 38.1406 39.5703C38.4792 39.5443 38.6745 39.5443 38.7266 39.5703C38.7526 39.5964 38.6875 39.8698 38.5312 40.3906C38.375 40.9115 38.1797 41.5234 37.9453 42.2266C37.7109 42.9297 37.4635 43.6589 37.2031 44.4141C36.9427 45.1432 36.7474 45.7422 36.6172 46.2109C36.487 46.6797 36.3307 47.2135 36.1484 47.8125C35.9661 48.3854 35.7969 48.9583 35.6406 49.5312C35.5104 50.0781 35.4193 50.599 35.3672 51.0938C35.3151 51.5885 35.3542 51.9661 35.4844 52.2266C35.6146 52.5391 35.7578 52.7604 35.9141 52.8906C36.0703 52.9948 36.2396 53.0469 36.4219 53.0469C36.9427 53.0469 37.5938 52.7604 38.375 52.1875C39.1823 51.6146 39.9896 50.9375 40.7969 50.1562C41.6302 49.349 42.3984 48.5417 43.1016 47.7344C43.8047 46.901 44.3255 46.237 44.6641 45.7422C44.8724 45.4818 45.0807 45.3125 45.2891 45.2344C45.5234 45.1562 45.7057 45.1693 45.8359 45.2734C45.9922 45.3776 46.0703 45.5469 46.0703 45.7812C46.0964 46.0156 46.0182 46.2891 45.8359 46.6016C45.4193 47.3307 44.8073 48.2031 44 49.2188C43.1927 50.2083 42.3333 51.1719 41.4219 52.1094C40.5104 53.0208 39.612 53.8021 38.7266 54.4531C37.8672 55.1042 37.1641 55.4427 36.6172 55.4688C36.1745 55.4948 35.7318 55.4167 35.2891 55.2344C34.8724 55.0781 34.4818 54.8568 34.1172 54.5703C33.7786 54.2578 33.4922 53.9062 33.2578 53.5156C33.0234 53.099 32.8932 52.6693 32.8672 52.2266C32.7891 51.5755 32.7891 50.6901 32.8672 49.5703C32.9453 48.4245 33.0885 47.2656 33.2969 46.0938C33.5052 44.8958 33.7656 43.763 34.0781 42.6953C34.4167 41.6276 34.7943 40.8333 35.2109 40.3125ZM54.5859 55.9766C53.987 55.9766 53.4661 55.8594 53.0234 55.625C52.6068 55.4167 52.2682 55.1302 52.0078 54.7656C51.7474 54.401 51.5781 53.9844 51.5 53.5156C51.4219 53.0208 51.4479 52.5 51.5781 51.9531C51.6562 51.5885 51.7865 51.1068 51.9688 50.5078C52.151 49.8828 52.3333 49.2188 52.5156 48.5156C52.724 47.7865 52.9062 47.0703 53.0625 46.3672C53.2448 45.638 53.362 44.987 53.4141 44.4141C53.4661 43.8151 53.4401 43.3333 53.3359 42.9688C53.2318 42.5781 53.0104 42.3828 52.6719 42.3828C52.2552 42.3828 51.8255 42.526 51.3828 42.8125C50.9401 43.0729 50.4844 43.4375 50.0156 43.9062C49.5729 44.375 49.1172 44.9219 48.6484 45.5469C48.2057 46.1458 47.763 46.7708 47.3203 47.4219C47.0859 48.3073 46.8906 49.0885 46.7344 49.7656C46.5781 50.4167 46.4349 51.0156 46.3047 51.5625C46.2005 52.0833 46.0964 52.5521 45.9922 52.9688C45.888 53.3594 45.7969 53.737 45.7188 54.1016C45.6406 54.362 45.4062 54.6224 45.0156 54.8828C44.625 55.1172 44.2083 55.3125 43.7656 55.4688C43.3229 55.625 42.9453 55.7031 42.6328 55.7031C42.2943 55.7031 42.151 55.5859 42.2031 55.3516C42.2292 55.1953 42.3203 54.8438 42.4766 54.2969C42.6068 53.75 42.776 53.112 42.9844 52.3828C43.1667 51.6276 43.362 50.8333 43.5703 50C43.7786 49.1667 43.974 48.3724 44.1562 47.6172C44.2865 47.0182 44.4297 46.3542 44.5859 45.625C44.7161 45 44.8724 44.2708 45.0547 43.4375C45.263 42.6042 45.4974 41.6927 45.7578 40.7031C45.9401 40.5469 46.1224 40.4297 46.3047 40.3516C46.513 40.2474 46.7214 40.1693 46.9297 40.1172C47.138 40.0391 47.3594 39.987 47.5938 39.9609C47.8021 39.9609 48.0104 39.974 48.2188 40C48.401 40.026 48.5833 40.0781 48.7656 40.1562C48.974 40.2083 49.1562 40.2995 49.3125 40.4297C49.2344 40.612 49.1432 40.8724 49.0391 41.2109C48.9349 41.5234 48.8307 41.862 48.7266 42.2266C48.6224 42.6432 48.4922 43.0729 48.3359 43.5156C48.6745 43.0469 49.0521 42.5781 49.4688 42.1094C49.9115 41.6146 50.3802 41.1719 50.875 40.7812C51.3958 40.3906 51.9427 40.0781 52.5156 39.8438C53.0885 39.5833 53.6745 39.4531 54.2734 39.4531C54.7682 39.4531 55.2109 39.5964 55.6016 39.8828C55.9922 40.1693 56.2917 40.5729 56.5 41.0938C56.7344 41.5885 56.8646 42.1875 56.8906 42.8906C56.9427 43.5938 56.8516 44.362 56.6172 45.1953L56.1875 46.9141C56.0573 47.4609 55.888 48.112 55.6797 48.8672C55.4974 49.5964 55.263 50.4036 54.9766 51.2891C54.8203 51.862 54.7552 52.3568 54.7812 52.7734C54.8333 53.1901 55.0938 53.3984 55.5625 53.3984C56.0312 53.3984 56.6172 53.112 57.3203 52.5391C58.0495 51.9661 58.7786 51.276 59.5078 50.4688C60.237 49.6615 60.9271 48.8411 61.5781 48.0078C62.2292 47.1484 62.724 46.4583 63.0625 45.9375C63.2969 45.599 63.5182 45.3776 63.7266 45.2734C63.9349 45.1693 64.0911 45.1562 64.1953 45.2344C64.3255 45.3125 64.3906 45.4948 64.3906 45.7812C64.3906 46.0417 64.2865 46.3802 64.0781 46.7969C63.8958 47.1615 63.6094 47.6432 63.2188 48.2422C62.8542 48.8411 62.4115 49.4792 61.8906 50.1562C61.3698 50.8333 60.8099 51.5234 60.2109 52.2266C59.612 52.9036 58.987 53.5286 58.3359 54.1016C57.6849 54.6484 57.0339 55.0911 56.3828 55.4297C55.7578 55.7943 55.1589 55.9766 54.5859 55.9766ZM73.8828 47.5391C73.7526 48.3464 73.6224 49.1146 73.4922 49.8438C73.388 50.5729 73.3229 51.1589 73.2969 51.6016C73.2708 52.2526 73.388 52.7214 73.6484 53.0078C73.9089 53.2943 74.1953 53.4375 74.5078 53.4375C74.8724 53.4375 75.3151 53.2552 75.8359 52.8906C76.3828 52.526 76.9557 52.0703 77.5547 51.5234C78.1536 50.9766 78.7526 50.3776 79.3516 49.7266C79.9505 49.0755 80.4974 48.4635 80.9922 47.8906C81.513 47.2917 81.9427 46.7708 82.2812 46.3281C82.6458 45.8854 82.8932 45.599 83.0234 45.4688C83.1797 45.3125 83.3359 45.2214 83.4922 45.1953C83.6745 45.1693 83.8177 45.1953 83.9219 45.2734C84.026 45.3516 84.0781 45.4948 84.0781 45.7031C84.0781 45.9115 83.974 46.1719 83.7656 46.4844C83.4531 46.9792 83.0495 47.5651 82.5547 48.2422C82.0599 48.8932 81.513 49.5703 80.9141 50.2734C80.3151 50.9766 79.6771 51.6667 79 52.3438C78.349 53.0208 77.6849 53.6198 77.0078 54.1406C76.3568 54.6615 75.7188 55.0781 75.0938 55.3906C74.4948 55.7292 73.9479 55.8984 73.4531 55.8984C73.0885 55.8984 72.737 55.7943 72.3984 55.5859C72.0859 55.3776 71.7995 55.1042 71.5391 54.7656C71.2786 54.4271 71.0703 54.0495 70.9141 53.6328C70.7839 53.2161 70.7318 52.7995 70.7578 52.3828C70.7839 52.2005 70.8229 51.888 70.875 51.4453C69.7812 52.6693 68.6745 53.6458 67.5547 54.375C66.4609 55.0781 65.4062 55.4297 64.3906 55.4297C64.026 55.4297 63.6354 55.3385 63.2188 55.1562C62.8021 54.974 62.4245 54.6745 62.0859 54.2578C61.7734 53.8411 61.513 53.2943 61.3047 52.6172C61.0964 51.9401 61.0182 51.1198 61.0703 50.1562C61.1484 48.6458 61.4479 47.2135 61.9688 45.8594C62.4896 44.5052 63.1406 43.3333 63.9219 42.3438C64.7292 41.3281 65.6276 40.5339 66.6172 39.9609C67.6328 39.362 68.6484 39.0625 69.6641 39.0625C70.1068 39.0625 70.5104 39.1797 70.875 39.4141C71.2396 39.6224 71.5521 39.9089 71.8125 40.2734C72.0729 40.612 72.2812 40.9896 72.4375 41.4062C72.6198 41.8229 72.75 42.2135 72.8281 42.5781C73.0104 41.8229 73.1797 41.0807 73.3359 40.3516C73.4922 39.6224 73.6484 38.9323 73.8047 38.2812C74.0651 37.3177 74.3385 36.276 74.625 35.1562C74.8854 34.1927 75.1849 33.0859 75.5234 31.8359C75.862 30.5859 76.2396 29.2708 76.6562 27.8906C76.9167 27.6823 77.1641 27.526 77.3984 27.4219C77.6328 27.3177 77.8542 27.2396 78.0625 27.1875C78.2969 27.1094 78.5182 27.0703 78.7266 27.0703C78.987 27.0703 79.2214 27.1094 79.4297 27.1875C79.638 27.2396 79.8073 27.4089 79.9375 27.6953C80.0938 27.9557 80.1979 28.3594 80.25 28.9062C80.3021 29.4531 80.3021 30.1953 80.25 31.1328C80.1979 32.2786 79.9896 33.5286 79.625 34.8828C79.2865 36.237 78.8307 37.6432 78.2578 39.1016C77.6849 40.5339 77.0208 41.9792 76.2656 43.4375C75.5365 44.8698 74.7422 46.237 73.8828 47.5391ZM71.5781 48.0469C71.6823 47.5521 71.7734 47.0573 71.8516 46.5625C71.9557 46.0677 72.0729 45.5599 72.2031 45.0391C72.151 45.0651 72.099 45.0911 72.0469 45.1172C72.0208 45.1432 71.9818 45.1693 71.9297 45.1953C71.6432 45.3255 71.4479 45.3255 71.3438 45.1953C71.2396 45.0391 71.1875 44.8047 71.1875 44.4922C71.1875 44.3359 71.1745 44.0625 71.1484 43.6719C71.1224 43.2552 71.0443 42.8385 70.9141 42.4219C70.8099 41.9792 70.6406 41.6016 70.4062 41.2891C70.1719 40.9505 69.8464 40.7812 69.4297 40.7812C68.8307 40.7812 68.2188 41.0938 67.5938 41.7188C66.9688 42.3177 66.3828 43.0599 65.8359 43.9453C65.2891 44.8047 64.8333 45.7292 64.4688 46.7188C64.1042 47.7083 63.8958 48.5938 63.8438 49.375C63.7917 50.625 63.9479 51.5234 64.3125 52.0703C64.6771 52.6172 65.1719 52.8906 65.7969 52.8906C66.2656 52.8906 66.7734 52.7083 67.3203 52.3438C67.8932 51.9792 68.4401 51.5365 68.9609 51.0156C69.5078 50.4948 70.0026 49.9609 70.4453 49.4141C70.9141 48.8672 71.2917 48.4115 71.5781 48.0469Z" fill="black"/>
</svg>
