<svg xmlns="http://www.w3.org/2000/svg" viewBox="0 0 225 225"><defs><style>.cls-1{fill:#ef5921;}.cls-2{fill:#fefefe;}.cls-3{fill:#ee4d00;}.cls-4{fill:#ee4e06;}.cls-5{fill:#ee4e01;}.cls-6{fill:#ee4c00;}.cls-7{fill:#ee4b00;}.cls-8{fill:#ee4e03;}.cls-9{fill:#ef5313;}.cls-10{fill:#ef5b1d;}.cls-11{fill:#ef5417;}.cls-12{fill:#ee4c01;}.cls-13{fill:#ee4b01;}.cls-14{fill:#ef5312;}.cls-15{fill:#ef5610;}.cls-16{fill:#ef510f;}.cls-17{fill:#ef5314;}.cls-18{fill:#ee4e04;}.cls-19{fill:#ee4c02;}.cls-20{fill:#ef5311;}.cls-21{fill:#ee4d05;}.cls-22{fill:#ee4f06;}.cls-23{fill:#ee4d02;}.cls-24{fill:#ef5211;}.cls-25{fill:#ee4a00;}.cls-26{fill:#ef5922;}.cls-27{fill:#ee4b03;}</style></defs><title>Asset 1</title><g id="Layer_2" data-name="Layer 2"><g id="Layer_1-2" data-name="Layer 1"><path class="cls-1" d="M.1.1Q110.5.1,220.91,0c3.42,0,4.1.67,4.09,4.09q-.19,108.41,0,216.82c0,3.42-.67,4.1-4.09,4.09q-108.41-.19-216.82,0C.67,225,0,224.33,0,220.91Q.2,110.5.1.1Z"/><path class="cls-2" d="M154.62,95.2c9.19,1,14.91,6,17.25,14.94,1,1.56.63,3.19.25,4.82-.05,1.32-.21,2.66-.14,4,.14,2.78-.94,4-3.84,3.54-6.44-1.1-12,1.41-17.37,4.46-2.13,1.2-4.1,2.56-3.7,5.3s1.9,4.56,4.92,4.65a9.39,9.39,0,0,1,5.95,0c5.27-.11,7.16-5.26,11-7.56,2.37-1.4,3-1.25,3.66.95a7.24,7.24,0,0,0,3.21,4.22c2.55,1.36,2.15,3.39,2.19,5.47a1,1,0,0,1-.3,1.67c-3.89,3.65-9.23,2.68-13.77,4.26a34.29,34.29,0,0,1-14,0c-5.13-.94-10.19-2-13.51-7-3.3,4.25-8,5.32-12.55,6.83a28.59,28.59,0,0,1-13.88.07l-5-2c-2.55-2.61-2.46-5.2,0-7.78a14.65,14.65,0,0,0,6.91.84,7.06,7.06,0,0,1,4.94,0c3.35.05,5.38-1.73,5.9-4.87.57-3.49-2.57-4.76-4.74-6.17-3.06-2-6.82-2.64-9.94-4.75-5.12-3.47-6.75-8.37-6.1-14.09.62-5.37,4.36-8.43,9.27-9.79,8.64-2.4,17.13-3.27,23.72,4.81.77.57,1.69,1,1.81,2.14-.3,5.54-1.63,6.06-7.74,3.09-2-.82-4-1.28-6.08-.25-4,2.56-4.41,4.76-.74,7.41,3.9,2.82,8.64,4.16,12.81,6.54a3.15,3.15,0,0,0,2.9-.18c4.18-2,8.64-3.49,12.63-5.86s3.7-5.68-.62-8a8.26,8.26,0,0,0-4.57.14,14.37,14.37,0,0,0-3.2,1.15c-3.72,1.46-4.54.92-5.28-3.33a2.84,2.84,0,0,1,1.21-2.75c3.82-4.9,9.5-5.75,15-6.92C153.72,94.4,154.18,94.34,154.62,95.2Z"/><path class="cls-2" d="M69.9,104.79c-.75,5.11-3.46,7.56-8.82,8.39-6.11.95-12.2,2.53-16.67,7.78-4,4.71-4.43,9.44-.33,14,1,1.09,2.39,2.14,2.71,3.43,1,3.93.29,7.18-4.76,7.42a16.16,16.16,0,0,1-9.92,0c-2.8-1-2.47-3.67-2.89-5.82-.52-2.7-.71-5.46-1-8.2-1.36-8.6-.25-17.26-.61-25.89.07-.89-.22-1.88.69-2.55.27-3.3.55-6.61.83-9.91.58-6.82,2-8.62,8.54-10.46,2.54-.72,5.15-1.19,7.72-1.77a2.26,2.26,0,0,1,3.4,0c2.12.35,4.25.63,6.35,1C63.39,83.88,67.82,89.39,70,97.16,71.05,99.71,72.6,102.27,69.9,104.79Z"/><path class="cls-2" d="M93.05,145.14a7.67,7.67,0,0,0-4.35.65c-.62.9-1.57.61-2.41.68-4.07-.37-8.21.77-12.23-.62a7.2,7.2,0,0,0-1.81-.7c-7.67-.69-12.14-4.71-13-12.47v-.37c1-7.18,5.5-11.07,12-13.34,3.06-1.07,6-2.3,8.41-4.83,2.87-3,3.35-5.43,0-8.16-2.41-1.24-5.15.26-7.58-.89a1,1,0,0,0-.8-.39c-.16-2-.92-4,.95-5.62,4.89-5.29,15.54-4.14,20.38,2.41,3.93,5.31,4.92,11.46,4.27,17.93-.23,2.24-1.31,2.84-3.65,2.82a29.21,29.21,0,0,0-17.34,5.16c-2,1.35-3.42,2.5-3.18,4.95.24,2.64,1.62,4.25,4.37,4.48a14.5,14.5,0,0,1,6.93,0c3.25,0,4.52-2.91,6.6-4.59,2.74-2.19,5.32-4.19,7.58.46.86,1.77,3.49,1.8,3.88,4.17.71,4.35.06,7.64-5.22,8C95.64,145.9,94.35,145.5,93.05,145.14Z"/><path class="cls-2" d="M180.13,135.34c1.09-3.06.86-6.23.71-9.38-.43-2.92-1-5.84.24-8.71a36.91,36.91,0,0,0,0-13.5c-1.19-2.19-.72-4.45-.27-6.7.48-3.13-.64-6-1.16-9-1.55-1.29-1.55-2.61-.06-4,2.24-3.36,6.29-3,9.4-4.55,1.57-1.08,3.17-1.59,4.88-.28,2.58,3.9,1.54,8.27,1.52,12.49,0,3.78-.22,7.56-.34,11.34.49,2,.78,4-.21,6a9.32,9.32,0,0,0-.74,5c.37,2,.81,4-.31,5.92a5.44,5.44,0,0,0-.71,4.07c.32,1.66.93,3.35-.34,4.91-1.7,2.67.69,4.4,1.82,6,3.91,5.58,3.6,7.24-2.67,9.91a14,14,0,0,1-8.92,0c-.77-1.27-3.68-.16-3.18-2.85A8.78,8.78,0,0,1,180.13,135.34Z"/><path class="cls-3" d="M28.14,105q0,13.39,0,26.8c-2.19-1-1-2.92-1-4.35C27,120,27.09,112.51,27.09,105,27.42,104.33,27.77,104.32,28.14,105Z"/><path class="cls-4" d="M72.21,99.08a10.87,10.87,0,0,1-.95,5.62.91.91,0,0,1-1.36.09l0-7.63C71.53,96.82,71.15,98.81,72.21,99.08Z"/><path class="cls-5" d="M181.08,117.25l-.24,8.71c-1.82-4.26-.47-8.67-.36-13.07Z"/><path class="cls-6" d="M110.05,145.81l13.88-.07A17.53,17.53,0,0,1,110.05,145.81Z"/><path class="cls-7" d="M150,145.87l14,0A19.43,19.43,0,0,1,150,145.87Z"/><path class="cls-8" d="M180.82,97.05l.27,6.7c-.18,1.43-.35,2.87-.52,4.31C180.32,104.37,179.12,100.67,180.82,97.05Z"/><path class="cls-9" d="M180.13,135.34,179.8,142a1.49,1.49,0,0,1-2.06-.34L178,140c1.31-1.7.69-3.73,1-5.61.19-1.19.63-.72.89,0C180,134.7,180.06,135,180.13,135.34Z"/><path class="cls-7" d="M74.06,145.85l13,.1c.68.35.67.68,0,1C82.7,146.5,78.22,148.07,74.06,145.85Z"/><path class="cls-10" d="M105.12,136a7.93,7.93,0,0,0,0,7.78C102.13,141.64,102.15,139.06,105.12,136Z"/><path class="cls-11" d="M28.14,105l-1.05,0V96.79h.71c.15,2.19.3,4.39.46,6.58Z"/><path class="cls-12" d="M32.11,145.82l9.92,0A10.08,10.08,0,0,1,32.11,145.82Z"/><path class="cls-13" d="M183,144.83l8.92,0A8.4,8.4,0,0,1,183,144.83Z"/><path class="cls-14" d="M154.62,95.2l-1.38,0a5.61,5.61,0,0,1-.92-.22c-.33-.13-1.12-.5-.41-.7a8.53,8.53,0,0,1,3.73-.12c1.23.21.52.64-.1.86A8.81,8.81,0,0,1,154.62,95.2Z"/><path class="cls-15" d="M72.06,105.09c2.57-.06,5.27-1.27,7.58.89C77.1,105.79,74.43,106.68,72.06,105.09Z"/><path class="cls-16" d="M48.75,81.19l-3.4,0c.88-2.23,2.65-1.06,4-.89C49.77,80.37,49.08,81,48.75,81.19Z"/><path class="cls-17" d="M123.12,93.85c-1.89,1.6-3.14.77-4.73,1.24C119.89,93.33,121.16,94.38,123.12,93.85Z"/><path class="cls-18" d="M84,136.83a12.75,12.75,0,0,1-6.93,0A7,7,0,0,1,84,136.83Z"/><path class="cls-19" d="M193.88,79.21l-4.88.28C190.52,77.46,192.16,77.7,193.88,79.21Z"/><path class="cls-9" d="M179.6,84l.06,4C177.46,86.71,177.43,85.4,179.6,84Z"/><path class="cls-7" d="M193.8,120c.1-2,.21-3.95.31-5.92C195.22,116.08,195.37,118.06,193.8,120Z"/><path class="cls-9" d="M59.23,132.31v.37l-.6,1.73A1.84,1.84,0,0,1,58.2,132C58.78,130.72,58.92,132,59.23,132.31Z"/><path class="cls-7" d="M194.85,109l.21-6A5,5,0,0,1,194.85,109Z"/><path class="cls-18" d="M157.94,136.89a10.57,10.57,0,0,1-5.95,0A5.17,5.17,0,0,1,157.94,136.89Z"/><path class="cls-20" d="M138.21,102.09,137.8,105c-.91.29-1.35-.24-1.68-1l-1-2Z"/><path class="cls-21" d="M172.12,115l-.25-4.82C174,111.64,172.81,113.31,172.12,115Z"/><path class="cls-22" d="M192.75,128.94l.34-4.91C194.16,125.75,194.29,127.4,192.75,128.94Z"/><path class="cls-19" d="M117,136.88l-4.94,0A3.93,3.93,0,0,1,117,136.88Z"/><path class="cls-23" d="M93.05,145.14l3.78-.28C95.71,146.81,94.37,145.86,93.05,145.14Z"/><path class="cls-24" d="M87,147v-1l1.68-.16,1.67.64C89.38,147.45,88.12,146.75,87,147Z"/><path class="cls-1" d="M136.12,104l1.68,1c.33,1.36-.13,4,2.58,1.74a11.77,11.77,0,0,1,4.67-2.47,12.93,12.93,0,0,0,5.87,0c3.38.43,4.73,2.7,5.14,5.77a6.41,6.41,0,0,1-3.8,6.93c-4.85,2.5-10.18,4-14.85,6.88a2.62,2.62,0,0,1-2.36,0c-4.32-3.22-9.81-4.24-14.08-7.31-5-3.62-6.51-8.32,1.08-12.34,2.77.85,5.7-.25,8.46.73.53.26,1.4.41,1.54.81a2.43,2.43,0,0,0,3.34,1.71C136.94,106.86,135.88,105.18,136.12,104Z"/><path class="cls-12" d="M130.51,104.92c-2.83-.14-5.74.74-8.46-.73C124.92,103.86,127.83,103.09,130.51,104.92Z"/><path class="cls-25" d="M150.92,104.21a5.7,5.7,0,0,1-5.87,0A12.52,12.52,0,0,1,150.92,104.21Z"/><path class="cls-26" d="M41.23,96.05c0-3.23,2.17-4.33,4.88-4.86a9.25,9.25,0,0,0,4.87.1c6.2,4,7.45,8.06,4.22,13.79-2.19,3.89-7.53,5.2-12.16,3a3,3,0,0,1-1.69-2.22A37.42,37.42,0,0,0,41.23,96.05Z"/><path class="cls-12" d="M41.23,96.05a14.18,14.18,0,0,1,.12,9.86A24.44,24.44,0,0,1,41.23,96.05Z"/><path class="cls-27" d="M51,91.29a4.24,4.24,0,0,1-4.87-.1A8.77,8.77,0,0,1,51,91.29Z"/></g></g></svg>