<svg width="100" height="100" viewBox="0 0 100 100" fill="none" xmlns="http://www.w3.org/2000/svg">
<circle cx="50" cy="50" r="50" fill="#262626"/>
<path d="M22.31 50.91C22.59 51.49 22.73 52.26 22.73 53.22C22.73 54.14 22.56 55.05 22.22 55.95C21.88 56.83 21.39 57.58 20.75 58.2C20.11 58.84 19.32 59.34 18.38 59.7C17.46 60.06 16.4 60.24 15.2 60.24H14.75C12.85 60.24 10.78 59.86 8.54 59.1V53.52H10.25C10.63 53.52 10.86 53.7 10.94 54.06C11 54.32 11.09 55.15 11.21 56.55C12.05 56.81 13.42 56.94 15.32 56.94C16.46 56.94 17.35 56.67 17.99 56.13C18.61 55.59 18.92 54.81 18.92 53.79C18.92 53.23 18.78 52.76 18.5 52.38C18.24 52.02 17.86 51.72 17.36 51.48C16.86 51.22 16.33 51.01 15.77 50.85L15.11 50.67L13.94 50.31C13.34 50.11 12.73 49.87 12.11 49.59C11.55 49.33 11.01 48.96 10.49 48.48C10.01 48.04 9.64 47.48 9.38 46.8C9.08 46.06 8.93 45.23 8.93 44.31C8.93 43.49 9.09 42.72 9.41 42C9.71 41.24 10.17 40.57 10.79 39.99C11.37 39.45 12.11 38.99 13.01 38.61C13.89 38.25 14.9 38.07 16.04 38.07C18.14 38.07 20.21 38.48 22.25 39.3V44.85H20.54C20.18 44.85 19.95 44.66 19.85 44.28C19.79 44 19.7 43.19 19.58 41.85C18.86 41.53 17.69 41.37 16.07 41.37C15.53 41.37 15.05 41.43 14.63 41.55C14.17 41.71 13.82 41.9 13.58 42.12C13.28 42.38 13.06 42.67 12.92 42.99C12.78 43.29 12.71 43.66 12.71 44.1C12.71 44.58 12.86 45 13.16 45.36C13.46 45.72 13.83 46.01 14.27 46.23C14.85 46.51 15.39 46.73 15.89 46.89C16.09 46.95 16.7 47.15 17.72 47.49C18.14 47.63 18.75 47.88 19.55 48.24C20.15 48.5 20.69 48.86 21.17 49.32C21.69 49.8 22.07 50.33 22.31 50.91ZM56.0098 60H40.2898V58.23C40.2898 57.73 40.5398 57.42 41.0398 57.3L41.2198 57.27L41.6698 57.18L42.5698 57.03V41.28L41.6698 41.13C41.5698 41.11 41.4798 41.09 41.3998 41.07C41.3398 41.05 41.2798 41.04 41.2198 41.04L41.0398 41.01C40.5398 40.89 40.2898 40.58 40.2898 40.08V38.31H48.8698V40.08C48.8698 40.58 48.6198 40.89 48.1198 41.01L47.9398 41.04L47.4898 41.13L46.5898 41.28V56.67H53.5798C53.6398 55.87 53.6798 55.44 53.6998 55.38C53.7998 55 54.0298 54.81 54.3898 54.81H56.0098V60ZM65.3527 37.02C65.6927 37.54 65.9527 38.1 66.1327 38.7C66.2927 39.2 66.3727 39.76 66.3727 40.38C66.3727 41.42 66.1227 42.38 65.6227 43.26C65.1027 44.18 64.3727 45.02 63.4327 45.78L62.2927 45.06C62.1527 44.96 62.0727 44.89 62.0527 44.85C62.0127 44.73 61.9927 44.64 61.9927 44.58C61.9927 44.4 62.0627 44.24 62.2027 44.1L62.6227 43.59C62.7427 43.43 62.8727 43.22 63.0127 42.96C63.1727 42.66 63.2727 42.4 63.3127 42.18C63.3927 41.82 63.4327 41.52 63.4327 41.28C63.4327 40.94 63.3727 40.58 63.2527 40.2C63.0927 39.7 62.9127 39.29 62.7127 38.97C62.6127 38.83 62.5627 38.7 62.5627 38.58C62.5627 38.24 62.7527 38.01 63.1327 37.89L65.3527 37.02ZM86.2505 48.78C89.2305 49.44 90.7205 51.05 90.7205 53.61C90.7205 54.53 90.5405 55.38 90.1805 56.16C89.8205 56.96 89.3105 57.64 88.6505 58.2C88.0305 58.74 87.2105 59.18 86.1905 59.52C85.2305 59.84 84.1105 60 82.8305 60H72.3605V58.23C72.3605 57.73 72.6105 57.42 73.1105 57.3L73.2905 57.27C73.3505 57.27 73.4105 57.26 73.4705 57.24C73.5505 57.22 73.6405 57.2 73.7405 57.18L74.6405 57.03V41.28L73.7405 41.13C73.6405 41.11 73.5505 41.09 73.4705 41.07C73.4105 41.05 73.3505 41.04 73.2905 41.04L73.1105 41.01C72.6105 40.89 72.3605 40.58 72.3605 40.08V38.31H82.1105C83.5505 38.31 84.7605 38.44 85.7405 38.7C86.7805 38.98 87.6105 39.37 88.2305 39.87C88.8705 40.37 89.3405 40.98 89.6405 41.7C89.9405 42.42 90.0905 43.21 90.0905 44.07C90.0905 44.61 90.0205 45.1 89.8805 45.54C89.7405 45.98 89.5005 46.42 89.1605 46.86C88.8605 47.22 88.4605 47.58 87.9605 47.94C87.5205 48.24 86.9505 48.52 86.2505 48.78ZM81.9005 47.7C83.2805 47.7 84.3205 47.45 85.0205 46.95C85.7205 46.45 86.0705 45.65 86.0705 44.55C86.0705 43.43 85.7505 42.63 85.1105 42.15C84.4905 41.67 83.4905 41.43 82.1105 41.43H78.6605V47.7H81.9005ZM86.5205 54.81C86.6605 54.45 86.7305 54.02 86.7305 53.52C86.7305 53.1 86.6505 52.68 86.4905 52.26C86.3305 51.86 86.1005 51.54 85.8005 51.3C85.5005 51.06 85.0905 50.86 84.5705 50.7C84.0905 50.56 83.4805 50.49 82.7405 50.49H78.6605V56.85H82.7705C83.5305 56.85 84.1605 56.76 84.6605 56.58C85.1605 56.4 85.5605 56.16 85.8605 55.86C86.1805 55.54 86.4005 55.19 86.5205 54.81Z" fill="white"/>
</svg>
