<svg width="50" height="50" viewBox="0 0 50 50" fill="none" xmlns="http://www.w3.org/2000/svg">
<rect width="50" height="50" rx="1" fill="#464646"/>
<path d="M8.096 7.764H5.264V6.768H12.068V7.764H9.236V15H8.096V7.764ZM13.52 15.144C12.976 15.144 12.492 15.016 12.068 14.76C11.644 14.504 11.432 14.04 11.432 13.368C11.432 12.56 11.792 12.008 12.512 11.712C13.232 11.408 14.272 11.256 15.632 11.256V10.56C15.632 10.192 15.528 9.912 15.32 9.72C15.112 9.52 14.736 9.42 14.192 9.42C13.68 9.42 13.312 9.516 13.088 9.708C12.872 9.9 12.764 10.136 12.764 10.416V10.56H11.744C11.736 10.512 11.732 10.424 11.732 10.296C11.732 9.736 11.964 9.304 12.428 9C12.892 8.696 13.512 8.544 14.288 8.544C15.072 8.544 15.668 8.708 16.076 9.036C16.484 9.364 16.688 9.828 16.688 10.428V13.848C16.688 13.992 16.728 14.1 16.808 14.172C16.888 14.236 16.988 14.268 17.108 14.268H17.588V14.952C17.38 15.048 17.108 15.096 16.772 15.096C16.5 15.096 16.272 15.016 16.088 14.856C15.904 14.688 15.78 14.468 15.716 14.196H15.632C15.416 14.492 15.12 14.724 14.744 14.892C14.376 15.06 13.968 15.144 13.52 15.144ZM13.796 14.268C14.108 14.268 14.404 14.204 14.684 14.076C14.964 13.948 15.192 13.76 15.368 13.512C15.544 13.256 15.632 12.948 15.632 12.588V12.132C14.6 12.132 13.824 12.216 13.304 12.384C12.792 12.544 12.536 12.852 12.536 13.308C12.536 13.652 12.64 13.9 12.848 14.052C13.064 14.196 13.38 14.268 13.796 14.268ZM18.472 6.324H19.528V15H18.472V6.324ZM23.8081 15.144C22.7921 15.144 22.0361 14.876 21.5401 14.34C21.0441 13.804 20.7961 12.972 20.7961 11.844C20.7961 10.716 21.0441 9.884 21.5401 9.348C22.0361 8.812 22.7921 8.544 23.8081 8.544C24.7201 8.544 25.4001 8.788 25.8481 9.276C26.3041 9.756 26.5321 10.532 26.5321 11.604V12.132H21.8881C21.9281 12.86 22.1001 13.4 22.4041 13.752C22.7161 14.096 23.1841 14.268 23.8081 14.268C24.3121 14.268 24.7201 14.152 25.0321 13.92C25.3441 13.688 25.5001 13.332 25.5001 12.852H26.5321C26.5321 13.588 26.2761 14.156 25.7641 14.556C25.2601 14.948 24.6081 15.144 23.8081 15.144ZM25.4281 11.256C25.4281 10.032 24.8881 9.42 23.8081 9.42C23.2081 9.42 22.7561 9.564 22.4521 9.852C22.1561 10.14 21.9761 10.608 21.9121 11.256H25.4281ZM27.8001 8.688H28.6041L28.7241 9.54H28.8081C29.2721 8.876 29.9801 8.544 30.9321 8.544C31.5641 8.544 32.0481 8.716 32.3841 9.06C32.7281 9.396 32.9001 9.94 32.9001 10.692V15H31.8441V10.764C31.8441 10.26 31.7321 9.912 31.5081 9.72C31.2841 9.52 30.9601 9.42 30.5361 9.42C30.2321 9.42 29.9521 9.496 29.6961 9.648C29.4401 9.792 29.2361 10.004 29.0841 10.284C28.9321 10.564 28.8561 10.892 28.8561 11.268V15H27.8001V8.688ZM35.8961 15.132C35.4641 15.132 35.1481 15.004 34.9481 14.748C34.7481 14.492 34.6481 14.176 34.6481 13.8V9.564H33.8801V8.688H34.6601L34.8881 6.936H35.7041V8.688H36.7721V9.564H35.7041V13.704C35.7041 14.08 35.8801 14.268 36.2321 14.268H36.7721V14.964C36.6681 15.012 36.5321 15.052 36.3641 15.084C36.1961 15.116 36.0401 15.132 35.8961 15.132Z" fill="#6AC2D0"/>
<path d="M10.984 40.144C9.984 40.144 9.168 39.944 8.536 39.544C7.904 39.144 7.588 38.52 7.588 37.672L7.6 37.432H8.728C8.712 37.544 8.704 37.628 8.704 37.684C8.704 38.172 8.904 38.544 9.304 38.8C9.712 39.048 10.252 39.172 10.924 39.172C11.676 39.172 12.252 39.056 12.652 38.824C13.052 38.584 13.252 38.244 13.252 37.804C13.252 37.508 13.148 37.264 12.94 37.072C12.732 36.872 12.468 36.716 12.148 36.604C11.836 36.492 11.412 36.368 10.876 36.232C10.212 36.064 9.676 35.904 9.268 35.752C8.86 35.592 8.512 35.36 8.224 35.056C7.936 34.744 7.792 34.336 7.792 33.832C7.792 33.112 8.092 32.564 8.692 32.188C9.292 31.812 10.06 31.624 10.996 31.624C11.932 31.624 12.692 31.816 13.276 32.2C13.86 32.576 14.152 33.156 14.152 33.94V34.084H13.036V33.904C13.036 33.496 12.848 33.176 12.472 32.944C12.104 32.712 11.624 32.596 11.032 32.596C10.4 32.596 9.892 32.692 9.508 32.884C9.132 33.076 8.944 33.364 8.944 33.748C8.944 34.028 9.044 34.256 9.244 34.432C9.452 34.608 9.704 34.752 10 34.864C10.304 34.968 10.724 35.088 11.26 35.224C11.924 35.392 12.464 35.556 12.88 35.716C13.304 35.876 13.66 36.112 13.948 36.424C14.244 36.728 14.392 37.128 14.392 37.624C14.392 38.504 14.084 39.144 13.468 39.544C12.86 39.944 12.032 40.144 10.984 40.144ZM15.8079 31.324H16.8519V32.464H15.8079V31.324ZM15.8079 33.688H16.8639V40H15.8079V33.688ZM19.8961 40.132C19.4641 40.132 19.1481 40.004 18.9481 39.748C18.7481 39.492 18.6481 39.176 18.6481 38.8V34.564H17.8801V33.688H18.6601L18.8881 31.936H19.7041V33.688H20.7721V34.564H19.7041V38.704C19.7041 39.08 19.8801 39.268 20.2321 39.268H20.7721V39.964C20.6681 40.012 20.5321 40.052 20.3641 40.084C20.1961 40.116 20.0401 40.132 19.8961 40.132ZM24.4839 40.144C23.4679 40.144 22.7119 39.876 22.2159 39.34C21.7199 38.804 21.4719 37.972 21.4719 36.844C21.4719 35.716 21.7199 34.884 22.2159 34.348C22.7119 33.812 23.4679 33.544 24.4839 33.544C25.3959 33.544 26.0759 33.788 26.5239 34.276C26.9799 34.756 27.2079 35.532 27.2079 36.604V37.132H22.5639C22.6039 37.86 22.7759 38.4 23.0799 38.752C23.3919 39.096 23.8599 39.268 24.4839 39.268C24.9879 39.268 25.3959 39.152 25.7079 38.92C26.0199 38.688 26.1759 38.332 26.1759 37.852H27.2079C27.2079 38.588 26.9519 39.156 26.4399 39.556C25.9359 39.948 25.2839 40.144 24.4839 40.144ZM26.1039 36.256C26.1039 35.032 25.5639 34.42 24.4839 34.42C23.8839 34.42 23.4319 34.564 23.1279 34.852C22.8319 35.14 22.6519 35.608 22.5879 36.256H26.1039Z" fill="white"/>
</svg>
